<?xml version="1.0" encoding="UTF-8"?>
<!DOCTYPE svg PUBLIC "-//W3C//DTD SVG 1.1//EN" "http://www.w3.org/Graphics/SVG/1.1/DTD/svg11.dtd">
<!-- Creator: CorelDRAW 2021 (64-Bit) -->
<svg xmlns="http://www.w3.org/2000/svg" xml:space="preserve" width="3.99016in" height="1.41496in" version="1.1" style="shape-rendering:geometricPrecision; text-rendering:geometricPrecision; image-rendering:optimizeQuality; fill-rule:evenodd; clip-rule:evenodd"
viewBox="0 0 3990.16 1414.96"
 xmlns:xlink="http://www.w3.org/1999/xlink"
 xmlns:xodm="http://www.corel.com/coreldraw/odm/2003">
 <defs>
  <style type="text/css">
   <![CDATA[
    .str1 {stroke:#FEFEFE;stroke-width:6.94;stroke-miterlimit:2.61313}
    .str0 {stroke:#FDC789;stroke-width:6.94;stroke-miterlimit:2.61313}
    .fil0 {fill:#FEFEFE}
    .fil1 {fill:#FDC789}
    .fil2 {fill:#FEFEFE;fill-rule:nonzero}
    .fil3 {fill:#FEC787;fill-rule:nonzero}
   ]]>
  </style>
 </defs>
 <g id="Layer_x0020_1">
  <metadata id="CorelCorpID_0Corel-Layer"/>
  <g id="_1829953052368">
   <path class="fil0" d="M616.29 956.2l51.13 0.06c5.09,-23.2 96.92,-287.65 102.96,-295.69 8.83,28.89 98.12,286.97 104.22,295.27l46.32 0.39c5.49,-7.18 133.47,-369.2 140.61,-398.77l-55.71 -0.66 -107.81 326.55c-8.74,-11.63 -95.31,-281.38 -112.59,-326.77l-31.72 0.31 -109.67 325.98 -110.72 -326.22 -54.97 0.14 137.96 399.42z"/>
   <path class="fil1" d="M112.44 602.04c52.57,-1.95 107.82,-0.13 160.05,-0.22 51.03,-0.08 97.07,12.15 98.87,64.42 3.46,100.8 -188.12,47.53 -258.7,63.08l-0.36 42.09c60.28,19.06 264.3,-38.65 270.89,68.47 3.41,55.31 -48.98,68.15 -99.07,68.53 -56.78,0.43 -115.58,1.12 -172.22,-0.22l0.44 47.33c102.56,-1.48 343.41,35.09 319.77,-124.26 -8.56,-57.69 -47.73,-67.9 -66.91,-81.09 29.43,-20.21 55.79,-34.09 55.45,-83.98 -0.99,-143.22 -203.61,-107.13 -307.67,-109.63l-0.54 45.46z"/>
   <polygon class="fil1 str0" points="568.62,-0.02 1742.93,-0.02 1742.93,1175.11 568.62,1175.11 568.62,1027.74 615.28,1027.74 615.28,1128.31 1696.28,1128.31 1696.28,46.8 615.28,46.8 615.28,480.67 568.62,480.67 "/>
   <path class="fil0 str1" d="M-0.09 167.89l1174.31 0 0 1175.14 -1174.31 0 0 -1175.14zm46.66 46.82l1081 0 0 1081.51 -1081 0 0 -1081.51z"/>
   <g>
    <path class="fil2" d="M1290.13 1229.26l72.94 0c14.48,0 25.22,0.59 32.31,1.78 7.13,1.23 13.46,3.74 19.07,7.52 5.6,3.82 10.27,8.87 14.01,15.2 3.74,6.33 5.6,13.46 5.6,21.31 0,8.49 -2.29,16.35 -6.88,23.44 -4.59,7.13 -10.83,12.44 -18.68,16.01 11.08,3.27 19.57,8.79 25.56,16.6 5.94,7.81 8.92,16.98 8.92,27.56 0,8.32 -1.91,16.39 -5.78,24.24 -3.86,7.85 -9.13,14.14 -15.83,18.85 -6.67,4.67 -14.91,7.56 -24.71,8.66 -6.11,0.64 -20.93,1.06 -44.41,1.23l-62.11 0 0 -182.4zm36.94 30.31l0 42.04 24.12 0c14.31,0 23.22,-0.21 26.7,-0.64 6.28,-0.72 11.25,-2.89 14.86,-6.5 3.61,-3.61 5.39,-8.32 5.39,-14.18 0,-5.65 -1.57,-10.19 -4.67,-13.72 -3.1,-3.52 -7.73,-5.65 -13.84,-6.37 -3.65,-0.43 -14.14,-0.64 -31.42,-0.64l-21.15 0zm0 72.35l0 48.91 34.14 0c13.25,0 21.7,-0.38 25.26,-1.1 5.48,-1.02 9.93,-3.44 13.37,-7.3 3.44,-3.91 5.18,-9.04 5.18,-15.54 0,-5.52 -1.31,-10.15 -3.99,-13.97 -2.63,-3.82 -6.5,-6.62 -11.51,-8.37 -5.01,-1.74 -15.92,-2.63 -32.69,-2.63l-29.76 0zm139.39 -10.36c0,-18.59 2.8,-34.22 8.37,-46.87 4.12,-9.3 9.81,-17.66 16.98,-25.05 7.17,-7.39 15.03,-12.86 23.56,-16.47 11.38,-4.8 24.5,-7.22 39.36,-7.22 26.92,0 48.41,8.36 64.58,25.05 16.13,16.73 24.2,39.96 24.2,69.72 0,29.51 -8.03,52.61 -24.03,69.25 -16.01,16.69 -37.45,25.01 -64.24,25.01 -27.13,0 -48.74,-8.28 -64.75,-24.88 -16,-16.56 -24.03,-39.4 -24.03,-68.53zm37.96 -1.23c0,20.68 4.8,36.34 14.35,47.04 9.55,10.66 21.7,16.01 36.39,16.01 14.73,0 26.79,-5.31 36.26,-15.88 9.43,-10.61 14.14,-26.49 14.14,-47.68 0,-20.93 -4.58,-36.56 -13.8,-46.83 -9.17,-10.32 -21.35,-15.46 -36.6,-15.46 -15.2,0 -27.47,5.22 -36.77,15.63 -9.3,10.44 -13.97,26.15 -13.97,47.17zm167.84 91.33l0 -182.4 77.57 0c19.49,0 33.67,1.65 42.5,4.93 8.87,3.27 15.92,9.09 21.23,17.45 5.31,8.41 7.98,17.96 7.98,28.74 0,13.72 -3.99,25.01 -12.02,33.93 -8.02,8.92 -20,14.52 -35.96,16.86 7.94,4.63 14.48,9.72 19.62,15.28 5.18,5.56 12.14,15.46 20.89,29.64l22.25 35.58 -44.03 0 -26.41 -39.83c-9.47,-14.14 -15.96,-23.06 -19.49,-26.75 -3.48,-3.65 -7.17,-6.2 -11.08,-7.56 -3.95,-1.36 -10.15,-2.04 -18.64,-2.04l-7.47 0 0 76.17 -36.94 0zm36.94 -105.21l27.26 0c17.66,0 28.66,-0.76 33.07,-2.25 4.37,-1.48 7.85,-4.07 10.32,-7.72 2.5,-3.65 3.74,-8.24 3.74,-13.72 0,-6.15 -1.66,-11.08 -4.93,-14.9 -3.27,-3.78 -7.9,-6.16 -13.84,-7.13 -3.02,-0.43 -11.97,-0.64 -26.88,-0.64l-28.74 0 0 46.37zm147.04 -77.19l67.17 0c15.16,0 26.7,1.15 34.65,3.48 10.66,3.14 19.83,8.75 27.43,16.81 7.64,8.02 13.42,17.87 17.41,29.55 3.95,11.63 5.94,26.03 5.94,43.09 0,15.03 -1.87,27.94 -5.6,38.81 -4.54,13.29 -11.04,24.03 -19.49,32.23 -6.37,6.24 -14.98,11.08 -25.81,14.56 -8.11,2.59 -18.93,3.86 -32.52,3.86l-69.17 0 0 -182.4zm36.94 30.82l0 120.75 27.39 0c10.23,0 17.62,-0.59 22.17,-1.74 5.98,-1.48 10.91,-4.03 14.81,-7.6 3.95,-3.57 7.13,-9.43 9.6,-17.58 2.5,-8.15 3.74,-19.32 3.74,-33.41 0,-14.1 -1.23,-24.88 -3.74,-32.44 -2.46,-7.56 -5.94,-13.42 -10.4,-17.66 -4.46,-4.2 -10.11,-7.09 -16.98,-8.58 -5.09,-1.15 -15.16,-1.74 -30.1,-1.74l-16.48 0zm147.04 151.58l0 -182.4 135.02 0 0 30.82 -98.08 0 0 40.51 91.2 0 0 30.82 -91.2 0 0 49.42 101.65 0 0 30.83 -138.58 0zm169.92 0l0 -182.4 77.57 0c19.49,0 33.67,1.65 42.5,4.93 8.87,3.27 15.92,9.09 21.23,17.45 5.31,8.41 7.98,17.96 7.98,28.74 0,13.72 -3.99,25.01 -12.02,33.93 -8.02,8.92 -20,14.52 -35.96,16.86 7.94,4.63 14.48,9.72 19.62,15.28 5.18,5.56 12.14,15.46 20.89,29.64l22.25 35.58 -44.03 0 -26.41 -39.83c-9.47,-14.14 -15.96,-23.06 -19.49,-26.75 -3.48,-3.65 -7.17,-6.2 -11.08,-7.56 -3.95,-1.36 -10.15,-2.04 -18.64,-2.04l-7.47 0 0 76.17 -36.94 0zm36.94 -105.21l27.26 0c17.66,0 28.66,-0.76 33.07,-2.25 4.37,-1.48 7.85,-4.07 10.32,-7.72 2.5,-3.65 3.74,-8.24 3.74,-13.72 0,-6.15 -1.66,-11.08 -4.93,-14.9 -3.27,-3.78 -7.9,-6.16 -13.84,-7.13 -3.02,-0.43 -11.97,-0.64 -26.88,-0.64l-28.74 0 0 46.37zm148.05 105.21l0 -180.87 36.94 0 0 150.05 91.46 0 0 30.83 -128.4 0zm154.59 0l0 -182.4 135.02 0 0 30.82 -98.08 0 0 40.51 91.2 0 0 30.82 -91.2 0 0 49.42 101.65 0 0 30.83 -138.58 0zm160.24 -59.1l35.92 -3.57c2.17,12.02 6.5,20.8 13.08,26.45 6.58,5.65 15.46,8.45 26.62,8.45 11.8,0 20.72,-2.5 26.7,-7.52 5.99,-5.01 9,-10.87 9,-17.58 0,-4.33 -1.28,-7.98 -3.78,-11.04 -2.5,-3.01 -6.92,-5.65 -13.2,-7.85 -4.29,-1.53 -14.06,-4.16 -29.34,-7.98 -19.66,-4.93 -33.46,-10.96 -41.4,-18.13 -11.17,-10.06 -16.73,-22.33 -16.73,-36.81 0,-9.3 2.63,-18.05 7.85,-26.16 5.26,-8.11 12.82,-14.26 22.72,-18.51 9.89,-4.24 21.78,-6.37 35.79,-6.37 22.8,0 40,5.05 51.5,15.2 11.55,10.15 17.57,23.65 18.17,40.59l-36.94 1.28c-1.57,-9.43 -4.93,-16.18 -10.06,-20.3 -5.14,-4.12 -12.87,-6.2 -23.14,-6.2 -10.61,0 -18.94,2.21 -24.92,6.63 -3.87,2.84 -5.82,6.62 -5.82,11.38 0,4.33 1.83,8.02 5.48,11.08 4.63,3.95 15.88,8.02 33.75,12.27 17.88,4.2 31.08,8.62 39.61,13.12 8.58,4.54 15.29,10.7 20.13,18.56 4.84,7.85 7.26,17.54 7.26,29.04 0,10.44 -2.89,20.26 -8.7,29.38 -5.81,9.13 -14.01,15.92 -24.63,20.34 -10.61,4.46 -23.86,6.67 -39.7,6.67 -23.06,0 -40.76,-5.31 -53.12,-15.96 -12.35,-10.61 -19.7,-26.11 -22.12,-46.45zm169.92 0l35.92 -3.57c2.17,12.02 6.5,20.8 13.08,26.45 6.58,5.65 15.46,8.45 26.62,8.45 11.8,0 20.72,-2.5 26.7,-7.52 5.99,-5.01 9,-10.87 9,-17.58 0,-4.33 -1.28,-7.98 -3.78,-11.04 -2.5,-3.01 -6.92,-5.65 -13.2,-7.85 -4.29,-1.53 -14.06,-4.16 -29.34,-7.98 -19.66,-4.93 -33.46,-10.96 -41.4,-18.13 -11.17,-10.06 -16.73,-22.33 -16.73,-36.81 0,-9.3 2.63,-18.05 7.85,-26.16 5.26,-8.11 12.82,-14.26 22.72,-18.51 9.89,-4.24 21.78,-6.37 35.79,-6.37 22.8,0 40,5.05 51.5,15.2 11.55,10.15 17.57,23.65 18.17,40.59l-36.94 1.28c-1.57,-9.43 -4.93,-16.18 -10.06,-20.3 -5.14,-4.12 -12.87,-6.2 -23.14,-6.2 -10.61,0 -18.94,2.21 -24.92,6.63 -3.87,2.84 -5.82,6.62 -5.82,11.38 0,4.33 1.83,8.02 5.48,11.08 4.63,3.95 15.88,8.02 33.75,12.27 17.88,4.2 31.08,8.62 39.61,13.12 8.58,4.54 15.29,10.7 20.13,18.56 4.84,7.85 7.26,17.54 7.26,29.04 0,10.44 -2.89,20.26 -8.7,29.38 -5.81,9.13 -14.01,15.92 -24.63,20.34 -10.61,4.46 -23.86,6.67 -39.7,6.67 -23.06,0 -40.76,-5.31 -53.12,-15.96 -12.35,-10.61 -19.7,-26.11 -22.12,-46.45z"/>
    <path class="fil3" d="M3084.52 1411.67l-42.88 -182.4 37.96 0 27.13 125.3 33.29 -125.3 43.9 0 31.84 127.42 27.77 -127.42 37.07 0 -43.94 182.4 -39.44 0 -35.96 -136.38 -36.22 136.38 -40.51 0zm207.75 -90.1c0,-18.59 2.8,-34.22 8.37,-46.87 4.12,-9.3 9.81,-17.66 16.98,-25.05 7.17,-7.39 15.03,-12.86 23.56,-16.47 11.38,-4.8 24.5,-7.22 39.36,-7.22 26.92,0 48.41,8.36 64.58,25.05 16.13,16.73 24.2,39.96 24.2,69.72 0,29.51 -8.03,52.61 -24.03,69.25 -16.01,16.69 -37.45,25.01 -64.24,25.01 -27.13,0 -48.74,-8.28 -64.75,-24.88 -16,-16.56 -24.03,-39.4 -24.03,-68.53zm37.96 -1.23c0,20.68 4.8,36.34 14.35,47.04 9.55,10.66 21.7,16.01 36.39,16.01 14.73,0 26.79,-5.31 36.26,-15.88 9.43,-10.61 14.14,-26.49 14.14,-47.68 0,-20.93 -4.58,-36.56 -13.8,-46.83 -9.17,-10.32 -21.35,-15.46 -36.6,-15.46 -15.2,0 -27.47,5.22 -36.77,15.63 -9.3,10.44 -13.97,26.15 -13.97,47.17zm167.84 91.33l0 -182.4 77.57 0c19.49,0 33.67,1.65 42.5,4.93 8.87,3.27 15.92,9.09 21.23,17.45 5.31,8.41 7.98,17.96 7.98,28.74 0,13.72 -3.99,25.01 -12.02,33.93 -8.02,8.92 -20,14.52 -35.96,16.86 7.94,4.63 14.48,9.72 19.62,15.28 5.18,5.56 12.14,15.46 20.89,29.64l22.25 35.58 -44.03 0 -26.41 -39.83c-9.47,-14.14 -15.96,-23.06 -19.49,-26.75 -3.48,-3.65 -7.17,-6.2 -11.08,-7.56 -3.95,-1.36 -10.15,-2.04 -18.64,-2.04l-7.47 0 0 76.17 -36.94 0zm36.94 -105.21l27.26 0c17.66,0 28.66,-0.76 33.07,-2.25 4.37,-1.48 7.85,-4.07 10.32,-7.72 2.5,-3.65 3.74,-8.24 3.74,-13.72 0,-6.15 -1.66,-11.08 -4.93,-14.9 -3.27,-3.78 -7.9,-6.16 -13.84,-7.13 -3.02,-0.43 -11.97,-0.64 -26.88,-0.64l-28.74 0 0 46.37zm148.05 105.21l0 -180.87 36.94 0 0 150.05 91.46 0 0 30.83 -128.4 0zm154.59 -182.4l67.17 0c15.16,0 26.7,1.15 34.65,3.48 10.66,3.14 19.83,8.75 27.43,16.81 7.64,8.02 13.42,17.87 17.41,29.55 3.95,11.63 5.94,26.03 5.94,43.09 0,15.03 -1.87,27.94 -5.6,38.81 -4.54,13.29 -11.04,24.03 -19.49,32.23 -6.37,6.24 -14.98,11.08 -25.81,14.56 -8.11,2.59 -18.93,3.86 -32.52,3.86l-69.17 0 0 -182.4zm36.94 30.82l0 120.75 27.39 0c10.23,0 17.62,-0.59 22.17,-1.74 5.98,-1.48 10.91,-4.03 14.81,-7.6 3.95,-3.57 7.13,-9.43 9.6,-17.58 2.5,-8.15 3.74,-19.32 3.74,-33.41 0,-14.1 -1.23,-24.88 -3.74,-32.44 -2.46,-7.56 -5.94,-13.42 -10.4,-17.66 -4.46,-4.2 -10.11,-7.09 -16.98,-8.58 -5.09,-1.15 -15.16,-1.74 -30.1,-1.74l-16.48 0z"/>
   </g>
  </g>
 </g>
</svg>
